<?xml version="1.0" encoding="utf-8"?>
<svg version="1.1" xmlns:xlink="http://www.w3.org/1999/xlink" width="36px" height="27px" xmlns="http://www.w3.org/2000/svg">
  <g transform="matrix(1 0 0 1 -460 -296 )">
    <path d="M 15.6181640625 17.2880859375  C 15.7060546875 17.8330078125  15.75 18.421875  15.75 19.0546875  C 15.75 19.69921875  15.5654296875 20.2470703125  15.1962890625 20.6982421875  C 14.8271484375 21.1494140625  14.384765625 21.375  13.869140625 21.375  L 6.380859375 21.375  C 5.865234375 21.375  5.4228515625 21.1494140625  5.0537109375 20.6982421875  C 4.6845703125 20.2470703125  4.5 19.69921875  4.5 19.0546875  C 4.5 18.421875  4.5439453125 17.8330078125  4.6318359375 17.2880859375  C 4.7197265625 16.7431640625  4.86328125 16.2158203125  5.0625 15.7060546875  C 5.26171875 15.1962890625  5.560546875 14.794921875  5.958984375 14.501953125  C 6.357421875 14.208984375  6.83203125 14.0625  7.3828125 14.0625  C 8.1328125 14.8125  9.046875 15.1875  10.125 15.1875  C 11.203125 15.1875  12.1171875 14.8125  12.8671875 14.0625  C 13.41796875 14.0625  13.892578125 14.208984375  14.291015625 14.501953125  C 14.689453125 14.794921875  14.98828125 15.1962890625  15.1875 15.7060546875  C 15.38671875 16.2158203125  15.5302734375 16.7431640625  15.6181640625 17.2880859375  Z M 12.515625 8.859375  C 13.171875 9.515625  13.5 10.3125  13.5 11.25  C 13.5 12.1875  13.171875 12.984375  12.515625 13.640625  C 11.859375 14.296875  11.0625 14.625  10.125 14.625  C 9.1875 14.625  8.390625 14.296875  7.734375 13.640625  C 7.078125 12.984375  6.75 12.1875  6.75 11.25  C 6.75 10.3125  7.078125 9.515625  7.734375 8.859375  C 8.390625 8.203125  9.1875 7.875  10.125 7.875  C 11.0625 7.875  11.859375 8.203125  12.515625 8.859375  Z M 31.341796875 18.158203125  C 31.447265625 18.263671875  31.5 18.3984375  31.5 18.5625  L 31.5 19.6875  C 31.5 19.8515625  31.447265625 19.986328125  31.341796875 20.091796875  C 31.236328125 20.197265625  31.1015625 20.25  30.9375 20  L 18.5625 20  C 18.3984375 20.25  18.263671875 20.197265625  18.158203125 20.091796875  C 18.052734375 19.986328125  18 19.8515625  18 19.6875  L 18 18.5625  C 18 18.3984375  18.052734375 18.263671875  18.158203125 18.158203125  C 18.263671875 18.052734375  18.3984375 18  18.5625 18  L 30.9375 18  C 31.1015625 18  31.236328125 18.052734375  31.341796875 18.158203125  Z M 24.591796875 13.658203125  C 24.697265625 13.763671875  24.75 13.8984375  24.75 14.0625  L 24.75 15.1875  C 24.75 15.3515625  24.697265625 15.486328125  24.591796875 15.591796875  C 24.486328125 15.697265625  24.3515625 15.75  24.1875 15.75  L 18.5625 15.75  C 18.3984375 15.75  18.263671875 15.697265625  18.158203125 15.591796875  C 18.052734375 15.486328125  18 15.3515625  18 15.1875  L 18 14.0625  C 18 13.8984375  18.052734375 13.763671875  18.158203125 13.658203125  C 18.263671875 13.552734375  18.3984375 13.5  18.5625 13.5  L 24.1875 13.5  C 24.3515625 13.5  24.486328125 13.552734375  24.591796875 13.658203125  Z M 31.341796875 13.658203125  C 31.447265625 13.763671875  31.5 13.8984375  31.5 14.0625  L 31.5 15.1875  C 31.5 15.3515625  31.447265625 15.486328125  31.341796875 15.591796875  C 31.236328125 15.697265625  31.1015625 15.75  30.9375 15.75  L 27.5625 15.75  C 27.3984375 15.75  27.263671875 15.697265625  27.158203125 15.591796875  C 27.052734375 15.486328125  27 15.3515625  27 15.1875  L 27 14.0625  C 27 13.8984375  27.052734375 13.763671875  27.158203125 13.658203125  C 27.263671875 13.552734375  27.3984375 13.5  27.5625 13.5  L 30.9375 13.5  C 31.1015625 13.5  31.236328125 13.552734375  31.341796875 13.658203125  Z M 31.341796875 9.158203125  C 31.447265625 9.263671875  31.5 9.3984375  31.5 9.5625  L 31.5 10.6875  C 31.5 10.8515625  31.447265625 10.986328125  31.341796875 11.091796875  C 31.236328125 11.197265625  31.1015625 11.25  30.9375 11.25  L 18.5625 11.25  C 18.3984375 11.25  18.263671875 11.197265625  18.158203125 11.091796875  C 18.052734375 10.986328125  18 10.8515625  18 10.6875  L 18 9.5625  C 18 9.3984375  18.052734375 9.263671875  18.158203125 9.158203125  C 18.263671875 9.052734375  18.3984375 9  18.5625 9  L 30.9375 9  C 31.1015625 9  31.236328125 9.052734375  31.341796875 9.158203125  Z M 33.5830078125 24.5830078125  C 33.6943359375 24.4716796875  33.75 24.33984375  33.75 24.1875  L 33.75 5  L 2.25 5  L 2.25 24.1875  C 2.25 24.33984375  2.3056640625 24.4716796875  2.4169921875 24.5830078125  C 2.5283203125 24.6943359375  2.66015625 24.75  2.8125 24.75  L 33.1875 24.75  C 33.33984375 24.75  33.4716796875 24.6943359375  33.5830078125 24.5830078125  Z M 35.173828125 0.826171875000001  C 35.724609375 1.376953125  36 2.0390625  36 2.8125  L 36 24.1875  C 36 24.9609375  35.724609375 25.623046875  35.173828125 26.173828125  C 34.623046875 26.724609375  33.9609375 27  33.1875 27  L 2.8125 27  C 2.0390625 27  1.376953125 26.724609375  0.826171875 26.173828125  C 0.275390625 25.623046875  0 24.9609375  0 24.1875  L 0 2.8125  C 0 2.0390625  0.275390625 1.376953125  0.826171875 0.826171875000001  C 1.376953125 0.275390624999997  2.0390625 0  2.8125 0  L 33.1875 0  C 33.9609375 0  34.623046875 0.275390624999997  35.173828125 0.826171875000001  Z " fill-rule="nonzero" fill="#000000" stroke="none" transform="matrix(1 0 0 1 460 296 )" />
  </g>
</svg>