<?xml version="1.0" encoding="utf-8"?>
<svg version="1.1" xmlns:xlink="http://www.w3.org/1999/xlink" width="30px" height="32px" xmlns="http://www.w3.org/2000/svg">
  <g transform="matrix(1 0 0 1 -463 -419 )">
    <path d="M 23.0559440559441 16  L 28.6363636363636 19.2083333333333  C 29.2797202797203 19.5694444444444  29.6958041958042 20.1076388888889  29.8846153846154 20.8229166666667  C 30.0734265734266 21.5381944444444  29.986013986014 22.2152777777778  29.6223776223776 22.8541666666667  L 28.2797202797203 25.1458333333333  C 27.9160839160839 25.7847222222222  27.3741258741259 26.1979166666667  26.6538461538462 26.3854166666667  C 25.9335664335664 26.5729166666667  25.2517482517483 26.4861111111111  24.6083916083916 26.125  L 19.027972027972 22.9375  L 19.027972027972 29.3333333333333  C 19.027972027972 30.0555555555556  18.7622377622378 30.6805555555556  18.2307692307692 31.2083333333333  C 17.6993006993007 31.7361111111111  17.0699300699301 32  16.3426573426573 32  L 13.6573426573427 32  C 12.9300699300699 32  12.3006993006993 31.7361111111111  11.7692307692308 31.2083333333333  C 11.2377622377622 30.6805555555556  10.972027972028 30.0555555555556  10.972027972028 29.3333333333333  L 10.972027972028 22.9375  L 5.39160839160839 26.125  C 4.74825174825175 26.4861111111111  4.06643356643357 26.5729166666667  3.34615384615385 26.3854166666667  C 2.62587412587413 26.1979166666667  2.08391608391609 25.7847222222222  1.72027972027972 25.1458333333333  L 0.377622377622378 22.8541666666667  C 0.0139860139860141 22.2152777777778  -0.0734265734265734 21.5381944444444  0.115384615384615 20.8229166666667  C 0.304195804195804 20.1076388888889  0.72027972027972 19.5694444444444  1.36363636363636 19.2083333333333  L 6.94405594405594 16  L 1.36363636363636 12.7916666666667  C 0.72027972027972 12.4305555555556  0.304195804195804 11.8923611111111  0.115384615384615 11.1770833333333  C -0.0734265734265734 10.4618055555556  0.0139860139860141 9.78472222222222  0.377622377622378 9.14583333333333  L 1.72027972027972 6.85416666666667  C 2.08391608391609 6.21527777777778  2.62587412587413 5.80208333333333  3.34615384615385 5.61458333333333  C 4.06643356643357 5.42708333333333  4.74825174825175 5.51388888888889  5.39160839160839 5.875  L 10.972027972028 9.0625  L 10.972027972028 2.66666666666667  C 10.972027972028 1.94444444444444  11.2377622377622 1.31944444444444  11.7692307692308 0.791666666666668  C 12.3006993006993 0.263888888888886  12.9300699300699 0  13.6573426573427 0  L 16.3426573426573 0  C 17.0699300699301 0  17.6993006993007 0.263888888888886  18.2307692307692 0.791666666666668  C 18.7622377622378 1.31944444444444  19.027972027972 1.94444444444444  19.027972027972 2.66666666666667  L 19.027972027972 9.0625  L 24.6083916083916 5.875  C 25.2517482517483 5.51388888888889  25.9335664335664 5.42708333333333  26.6538461538462 5.61458333333333  C 27.3741258741259 5.80208333333333  27.9160839160839 6.21527777777778  28.2797202797203 6.85416666666667  L 29.6223776223776 9.14583333333333  C 29.986013986014 9.78472222222222  30.0734265734266 10.4618055555556  29.8846153846154 11.1770833333333  C 29.6958041958042 11.8923611111111  29.2797202797203 12.4305555555556  28.6363636363636 12.7916666666667  L 23.0559440559441 16  Z " fill-rule="nonzero" fill="#000000" stroke="none" transform="matrix(1 0 0 1 463 419 )" />
  </g>
</svg>