<svg width="216" height="77" viewBox="0 0 216 77" fill="none" xmlns="http://www.w3.org/2000/svg">
<g clip-path="url(#clip0)">
<path d="M113.042 31.7112C111.748 29.9517 109.352 29.1113 107.339 29.1113C102.777 29.1113 98.6348 32.7435 98.6348 38.4814C98.6348 44.2192 102.786 47.8892 107.339 47.8892C109.314 47.8892 111.735 47.011 113.042 45.2516V45.7489C113.042 50.3757 111.026 52.1729 107.832 52.1729C106.9 52.1704 105.987 51.9079 105.195 51.4149C104.403 50.9218 103.764 50.2176 103.348 49.3811L99.2031 51.1783C99.9619 52.8271 101.18 54.2208 102.711 55.1914C104.242 56.162 106.021 56.6681 107.832 56.6486C114.113 56.6486 118.022 53.0164 118.022 45.2138V29.5709H113.042V31.7112ZM108.291 43.2246C107.057 43.1958 105.884 42.6826 105.023 41.7956C104.163 40.9086 103.684 39.7185 103.69 38.4814C103.681 37.8681 103.793 37.2591 104.02 36.6893C104.246 36.1196 104.583 35.6004 105.011 35.1616C105.438 34.7228 105.948 34.3731 106.511 34.1325C107.074 33.892 107.679 33.7655 108.291 33.7602C109.54 33.7602 110.738 34.2576 111.621 35.143C112.505 36.0284 113.001 37.2292 113.001 38.4814C113.001 39.7335 112.505 40.9344 111.621 41.8198C110.738 42.7052 109.54 43.2026 108.291 43.2026V43.2246Z" fill="#E82D43"/>
<path d="M130.734 47.8892C135.79 47.8892 140.274 44.1406 140.274 38.5192C140.274 32.8978 135.784 29.1113 130.734 29.1113C125.685 29.1113 121.191 32.86 121.191 38.5192C121.191 44.1783 125.672 47.8892 130.734 47.8892ZM130.734 43.2246C128.263 43.2246 126.247 41.2732 126.247 38.5192C126.247 35.7651 128.263 33.7759 130.734 33.7759C133.206 33.7759 135.218 35.7273 135.218 38.5192C135.218 41.311 133.199 43.2246 130.734 43.2246Z" fill="#E82D43"/>
<path d="M154.112 29.1112C152.097 29.1112 149.663 29.9138 148.41 31.7111V19.8545H143.43V47.4233H148.41V45.22C149.666 47.055 152.097 47.8954 154.112 47.8954C158.672 47.8954 162.817 44.2254 162.817 38.4876C162.817 32.7497 158.681 29.1112 154.112 29.1112ZM153.17 43.2245C151.921 43.2245 150.723 42.7271 149.84 41.8417C148.956 40.9563 148.46 39.7555 148.46 38.5033C148.46 37.2512 148.956 36.0503 149.84 35.1649C150.723 34.2795 151.921 33.7821 153.17 33.7821C153.78 33.7882 154.383 33.9156 154.944 34.1568C155.504 34.3981 156.011 34.7484 156.435 35.1876C156.86 35.6267 157.193 36.1459 157.416 36.7151C157.639 37.2843 157.746 37.8921 157.733 38.5033C157.739 41.0811 155.67 43.2245 153.161 43.2245H153.17Z" fill="#E82D43"/>
<path d="M168.305 47.7755C168.721 47.7872 169.135 47.716 169.523 47.566C169.911 47.4161 170.266 47.1903 170.566 46.9019C170.866 46.6134 171.106 46.268 171.273 45.8858C171.439 45.5036 171.527 45.0921 171.533 44.6752C171.533 42.9158 170.051 41.6158 168.305 41.6158C167.893 41.6026 167.483 41.6725 167.099 41.8214C166.715 41.9702 166.364 42.1949 166.068 42.4822C165.772 42.7695 165.537 43.1135 165.376 43.4937C165.216 43.874 165.133 44.2827 165.133 44.6957C165.133 45.1086 165.216 45.5173 165.376 45.8976C165.537 46.2778 165.772 46.6218 166.068 46.9091C166.364 47.1963 166.715 47.4211 167.099 47.5699C167.483 47.7188 167.893 47.7887 168.305 47.7755Z" fill="#E82D43"/>
<path d="M185.779 29.1113C183.763 29.1113 181.332 29.9517 180.076 31.7489V29.5709H175.096V56.1891H180.076V45.2201C181.332 47.0551 183.763 47.8955 185.779 47.8955C190.341 47.8955 194.483 44.2633 194.483 38.4877C194.48 32.7813 190.341 29.1113 185.779 29.1113ZM184.836 43.2246C183.587 43.2246 182.389 42.7272 181.506 41.8418C180.622 40.9564 180.126 39.7556 180.126 38.5034C180.126 37.2513 180.622 36.0504 181.506 35.165C182.389 34.2796 183.587 33.7822 184.836 33.7822C186.086 33.7822 187.284 34.2796 188.167 35.165C189.05 36.0504 189.547 37.2513 189.547 38.5034C189.547 39.7556 189.05 40.9564 188.167 41.8418C187.284 42.7272 186.086 43.2246 184.836 43.2246Z" fill="#E82D43"/>
<path d="M215.286 38.2138C215.286 32.7435 211.141 29.1113 206.047 29.1113C200.954 29.1113 196.627 32.7435 196.627 38.5192C196.627 44.0273 200.618 47.8892 206.095 47.8892C209.21 47.8892 212.29 46.5515 213.945 44.2948L211.056 41.3487C210.466 42.0071 209.745 42.5345 208.94 42.8971C208.135 43.2598 207.263 43.4496 206.38 43.4544C204.025 43.4544 202.351 42.23 201.821 40.1244H215.163C215.248 39.3218 215.286 38.7111 215.286 38.2138ZM201.83 36.873C202.361 34.4652 204.11 33.4328 206.164 33.4328C208.406 33.4328 210.117 34.7705 210.268 36.873H201.83Z" fill="#E82D43"/>
<path d="M0 0H74.5252C79.0942 0 85.5158 1.65558 86.6462 10.308C86.7425 11.1006 86.7886 11.8985 86.7844 12.697V77.0094H14.2029C0.226095 77.0094 0.329712 64.9326 0.329712 64.9326L0 0Z" fill="#E82D43"/>
<path d="M31.9164 65.2539H44.2541C63.3242 65.2539 76.18 53.8757 76.18 38.5538V37.7732C76.18 22.4481 63.475 11.5264 44.5556 11.5264H40.6115C38.3035 11.5272 36.0903 12.4468 34.4585 14.0829C32.8268 15.719 31.9102 17.9378 31.9102 20.2512L31.9164 65.2539Z" fill="white"/>
<path d="M11.3203 39.4794V59.1606C11.3203 60.7712 11.9578 62.316 13.0928 63.456C14.2278 64.596 15.7677 65.2382 17.3745 65.2415H24.9392V33.3984H17.3745C15.7677 33.4018 14.2278 34.0439 13.0928 35.1839C11.9578 36.324 11.3203 37.8688 11.3203 39.4794Z" fill="white"/>
<path d="M10.3887 19.2593C10.3887 21.2269 11.1685 23.1138 12.5565 24.5051C13.9445 25.8963 15.8271 26.6779 17.79 26.6779H17.9816C18.9534 26.6779 19.9156 26.486 20.8134 26.1132C21.7112 25.7403 22.527 25.1938 23.214 24.5049C23.901 23.816 24.4459 22.9981 24.8175 22.0981C25.1891 21.198 25.3802 20.2334 25.3798 19.2593C25.3764 17.2948 24.5955 15.4119 23.2084 14.0239C21.8214 12.636 19.9415 11.8564 17.9816 11.8564H17.79C15.8295 11.8556 13.9488 12.6348 12.5611 14.0228C11.1733 15.4109 10.392 17.2943 10.3887 19.2593Z" fill="white"/>
</g>
<defs>
<clipPath id="clip0">
<rect width="215.286" height="77" fill="white"/>
</clipPath>
</defs>
</svg>
